<?xml version="1.0" encoding="utf-8"?>
<!-- Generator: Adobe Illustrator 23.0.1, SVG Export Plug-In . SVG Version: 6.00 Build 0)  -->
<svg version="1.1" id="Layer_1" xmlns="http://www.w3.org/2000/svg" xmlns:xlink="http://www.w3.org/1999/xlink" x="0px" y="0px"
	 viewBox="0 0 80 20" style="enable-background:new 0 0 80 20;" xml:space="preserve">
<style type="text/css">
	.st0{fill:#01161E;}
</style>
<path class="st0" d="M20.4,5.1V18h5.9v1.4h-10V5.1H20.4z"/>
<path class="st0" d="M22.5,15.8V5.3c1.2,0,2.5-0.1,3.8-0.3v10.8H22.5z"/>
<path class="st0" d="M28.4,15.8V1.6c0.6,0,1.9-0.1,3.8-0.2v5.1C33,5.5,33.7,5,34.6,5c2.5,0,3.7,1.7,3.7,5.2c0,3.9-1.5,5.8-4.4,5.8
	c-1.4,0-2.6-0.7-3.6-2l-0.9,1.7h-1V15.8z M33.4,6.6c-0.8,0-1.3,1.2-1.3,3.7c0,2.9,0.4,4.3,1.2,4.3c0.7,0,1.1-0.7,1.1-2.2l0.1-2.6
	l-0.1-1.5C34.4,7.1,34,6.6,33.4,6.6z"/>
<path class="st0" d="M47.5,9.1h-2.6c0.1-0.4,0.2-0.7,0.2-0.9c0.1-0.3,0.1-0.5,0.1-0.8c0-0.4-0.2-0.7-0.5-0.7c-0.2,0-0.5,0.3-0.7,0.9
	s-0.3,1.2-0.3,1.9v6.3H40V5.3h0.7c0.9,0,1.9-0.1,3.1-0.3v1.7C44.4,5.6,45.2,5,46.1,5c1.2,0,1.8,0.7,1.8,2c0,0.4-0.1,0.8-0.2,1.2
	C47.7,8.5,47.6,8.8,47.5,9.1z"/>
<path class="st0" d="M59.7,15.5C58.8,15.8,57.9,16,57,16c-1.3,0-2.1-0.4-2.4-1.2c-0.6,0.8-1.5,1.3-2.7,1.3c-2.2,0-3.3-1-3.3-3.1
	c0-1.6,1-2.7,3-3.3c1.9-0.6,2.8-1.3,2.8-2.1c0-1.1-0.5-1.6-1.6-1.6c-1.2,0-1.9,0.5-1.9,1.6c0,0.3,0.1,0.8,0.3,1.3l-1.9-0.4
	c0-0.3-0.1-0.6-0.1-0.9c0-1.7,1.5-2.5,4.6-2.5c2.9,0,4.3,0.8,4.3,2.3v6.4c0,0.7,0.2,1,0.6,1c0.1,0,0.3-0.1,0.6-0.2L59.7,15.5z
	 M54.3,9.5c-0.2,0.3-0.5,0.5-0.8,0.7c-0.8,0.5-1.2,1.2-1.2,2.3c0,1.4,0.3,2.1,0.8,2.1c0.8,0,1.2-0.7,1.2-2.1V9.5z"/>
<path class="st0" d="M68,9.1h-2.6c0.1-0.4,0.2-0.7,0.2-0.9c0.1-0.3,0.1-0.5,0.1-0.8c0-0.4-0.2-0.7-0.5-0.7c-0.2,0-0.5,0.3-0.7,0.9
	s-0.3,1.2-0.3,1.9v6.3h-3.8V5.3h0.7C62,5.3,63,5.2,64.2,5v1.7C64.9,5.6,65.7,5,66.6,5c1.2,0,1.8,0.7,1.8,2c0,0.4-0.1,0.8-0.2,1.2
	C68.2,8.5,68.1,8.8,68,9.1z"/>
<path class="st0" d="M77,5.3l-2.4,6.2l-2.1-6.2h-4.2l4.2,11.1l-0.3,0.8c-0.1,0.2-0.2,0.4-0.3,0.6l0,0c-0.1,0.2-0.3,0.3-0.4,0.3H28.4
	v1.4c0,0,42.8,0,43.4,0s1.3-1,1.8-2.2l4.8-11.9L77,5.3L77,5.3z"/>
<polygon class="st0" points="26.2,1.9 25.1,1.9 25.1,1.2 23.8,1.2 23.8,1.9 22.7,1.9 22.7,3.3 23.8,3.3 23.8,4 25.1,4 25.1,3.3 
	26.2,3.3 "/>
<g>
	<path class="st0" d="M1.6,2.9l0.1-0.1c0-0.1,0.1-0.1,0.1-0.2C2,2.3,2.2,2.1,2.4,1.9S2.8,1.5,3,1.3C3.1,1.2,3.2,1.1,3.3,1
		s0.3-0.3,0.5-0.5C4,0.4,4.2,0.4,4.4,0.3c0.1,0,0.2,0,0.3,0.1c0.1,0.1,0.1,0.2,0.1,0.4c0,0.1,0,0.3,0,0.4c0,0.2-0.1,0.3-0.1,0.5
		c0,0.1-0.1,0.3-0.1,0.4v0.1c0,0,0,0,0.1,0C4.6,2.1,4.8,2,5,1.8s0.5-0.5,0.8-0.9c0.3-0.3,0.5-0.6,0.8-0.7S6.9,0,7.1,0
		c0.1,0,0.2,0.1,0.3,0.2c0.1,0.1,0.1,0.3,0.1,0.5c0,0.3,0,0.6-0.1,0.8c0,0.3-0.1,0.5-0.2,0.8v0.1v0.1c0,0,0,0.1,0.1,0.1l0.1-0.1
		c0.1-0.1,0.1-0.1,0.2-0.2c0-0.2,0.2-0.3,0.3-0.4s0.2-0.2,0.3-0.3c0.1-0.1,0.3-0.2,0.4-0.2C8.8,1.3,8.9,1.3,9,1.3c0,0,0,0,0.1,0
		c0,0,0,0,0.1,0.1s0.2,0.2,0.3,0.3s0.1,0.1,0.2,0.2c0.2,0.4,0.4,0.7,0.5,0.9C10.3,2.9,10.4,3,10.5,3c0,0,0,0,0.1,0s0,0,0.1,0
		c0.1,0.2,0.2,0.5,0.3,0.7c-0.2,0.1-0.3,0.2-0.5,0.3c-0.2-0.1-0.3,0-0.4,0c-0.3,0-0.7-0.2-1-0.6C8.7,2.9,8.5,2.7,8.3,2.7
		C8,2.7,7.6,3.1,7,3.8S6.1,4.9,5.9,4.9c-0.1,0-0.2,0-0.3,0c0,0-0.1,0-0.1-0.1c0,0,0-0.1,0-0.2s0-0.2,0-0.3S5.6,4,5.6,3.9
		c0.1-0.2,0.1-0.4,0.2-0.5c0-0.1,0.1-0.2,0.1-0.3C5.9,3.1,6,3,6,2.8s0-0.4,0.1-0.7C6.1,2,6.1,2,6,2H5.9H5.8L5.7,2.1
		c-0.1,0-0.1,0.1-0.2,0.2c-0.1,0-0.2,0.1-0.3,0.2C5,2.7,4.8,2.9,4.6,3.1C4.5,3.3,4.3,3.5,4.1,3.7C3.8,4,3.6,4.3,3.4,4.5
		C3.3,4.6,3.1,4.7,3.1,4.7c-0.1,0-0.3,0-0.3-0.1c-0.1,0-0.1-0.1-0.1-0.2c0-0.2,0.1-0.5,0.3-1s0.3-0.9,0.3-1.1V2.2c0,0,0,0-0.1,0
		S3.1,2.2,3,2.3C2.8,2.5,2.7,2.6,2.6,2.7C2.5,2.8,2.4,2.9,2.3,3C2.2,3.1,2.1,3.2,2,3.3c0,0,0,0.1-0.1,0.1L1.8,3.5
		c0-0.1-0.1-0.2-0.1-0.3C1.7,3.2,1.6,3.1,1.6,2.9z"/>
	<path class="st0" d="M10.6,2.9c0.1-0.1,0.3-0.3,0.5-0.4c0.2-0.2,0.4-0.3,0.5-0.4c0.1-0.1,0.2-0.2,0.3-0.3c0.1-0.1,0.3-0.3,0.4-0.4
		c0.1-0.1,0.2-0.2,0.3-0.2s0.2-0.1,0.3-0.1s0.2,0,0.3,0.1s0.1,0.1,0.1,0.3S13.2,2,13.1,2.4s-0.2,0.7-0.2,0.9v0.1c0,0,0,0,0.1,0l0,0
		c0.1-0.1,0.2-0.1,0.3-0.2c0.1-0.1,0.3-0.2,0.4-0.3c0.1-0.1,0.3-0.3,0.5-0.5s0.4-0.4,0.7-0.6c0.1-0.1,0.2-0.2,0.3-0.3
		s0.3-0.3,0.4-0.4c0.1-0.1,0.1-0.2,0.3-0.2c0.1,0,0.3-0.1,0.4-0.1s0.2,0,0.2,0.1c0.1,0,0.1,0.1,0.1,0.2v0.1v0.1
		c0,0.1-0.1,0.3-0.2,0.5s-0.1,0.5-0.2,0.7c-0.1,0.2-0.2,0.4-0.3,0.6c-0.1,0.2-0.2,0.5-0.3,0.8V4c0.1,0,0.2-0.2,0.4-0.3
		c0.2-0.1,0.4-0.4,0.7-0.7L17,3.7l-0.1,0.1c-0.1,0.1-0.1,0.1-0.2,0.2c-0.5,0.4-1,0.7-1.3,1.1c-0.4,0.4-0.7,0.7-0.9,1.1
		c-0.3,0.5-0.6,1-0.8,1.3s-0.4,0.6-0.5,0.7c-0.3,0.4-0.6,0.8-0.9,1c-0.3,0.2-0.6,0.3-0.9,0.3c-0.1,0-0.2,0-0.2-0.1
		c0,0-0.1-0.1-0.1-0.2c0,0,0-0.1,0-0.2c0-0.1,0.1-0.1,0.1-0.2c0.1-0.1,0.2-0.3,0.3-0.4L11.8,8c0-0.1,0-0.1,0-0.1s0-0.1,0.1-0.1
		L12,7.7c0-0.1,0.1-0.2,0.3-0.4c0.1-0.2,0.4-0.5,0.6-0.8c0.2-0.2,0.4-0.4,0.5-0.6c0.2-0.2,0.3-0.3,0.4-0.5c0,0,0-0.1,0.1-0.1
		c0-0.1,0-0.1,0.1-0.2s0.1-0.3,0.2-0.5c0.1-0.2,0.2-0.4,0.3-0.6c0-0.1,0.1-0.3,0.1-0.5s0.1-0.4,0.1-0.6c0,0,0,0,0-0.1V2.7
		c-0.1,0-0.2,0.1-0.3,0.2c-0.1,0.1-0.2,0.2-0.3,0.3c-0.2,0.2-0.3,0.4-0.5,0.5S13.3,3.9,13.1,4c-0.1,0.2-0.2,0.4-0.4,0.5
		s-0.4,0.1-0.6,0.1c-0.2,0-0.3,0-0.4-0.1c-0.1-0.1-0.1-0.2-0.1-0.3V4.1c0,0,0-0.1,0-0.2c0,0,0-0.1-0.1-0.2c0-0.1,0-0.2,0.1-0.3
		c0-0.1,0-0.3,0-0.3L11.5,3l0,0c-0.1,0-0.1,0.1-0.2,0.2c-0.1,0.1-0.2,0.2-0.3,0.3c0-0.1-0.1-0.1-0.1-0.2c0-0.1-0.1-0.2-0.1-0.3
		C10.7,3,10.7,3,10.6,2.9C10.7,2.9,10.6,2.9,10.6,2.9z"/>
</g>
</svg>
